# xmcd
#
# Track frame offsets:
#	150
#	11085
#	25119
#	39432
#	56800
#	71351
#	88337
#	99866
#	112412
#	127547
#	147174
#	160004
#	175461
#	190691
#	201475
#	218860
#
# Disc length: 3081 seconds
#
# Revision: 1
# Processed by: cddbd v1.5.2PL0 Copyright (c) Steve Scherf et al.
# Submitted via: audiograbber 1.83.01
#
DISCID=df0c0710
DTITLE=GeeGee Kettel and Soluna Samay - movin´ on
DYEAR=2005
DGENRE=Country
TTITLE0=Good Morning Blues
TTITLE1=Ain´t Got No Honey Babe Now
TTITLE2=Route 66
TTITLE3=A Shot of Rhythm and Blues
TTITLE4=I Know You Rider
TTITLE5=Pastures Of Plenty
TTITLE6=Sitting On Top Of The World
TTITLE7=Kansas City
TTITLE8=The Cuckoo
TTITLE9=Friend Of The Devil
TTITLE10=Green River
TTITLE11=Mystery Train
TTITLE12=Leaving Louisiana
TTITLE13=movin´on
TTITLE14=Tweeter And The Monkey Man
TTITLE15=These Boots Are Made For Walking
EXTD=
EXTT0=
EXTT1=
EXTT2=
EXTT3=
EXTT4=
EXTT5=
EXTT6=
EXTT7=
EXTT8=
EXTT9=
EXTT10=
EXTT11=
EXTT12=
EXTT13=
EXTT14=
EXTT15=
PLAYORDER=
